<?xml version="1.0" encoding="UTF-8" standalone="no"?>
<svg width="32" height="32" viewBox="-100 -100 200 200" xmlns="http://www.w3.org/2000/svg">
  <!-- Drone body (rectangular center) -->
  <rect x="-40" y="-20" width="80" height="40" rx="5" fill="#333" />
  
  <!-- Camera (front right of drone) -->
  <rect x="40" y="-15" width="15" height="20" rx="2" fill="#222" />
  <circle cx="47.5" cy="-5" r="7" fill="#111" />
  <circle cx="47.5" cy="-5" r="4" fill="#000" />
  
  <!-- Arm 1 (top right) -->
  <line x1="0" y1="0" x2="60" y2="-60" stroke="#000" stroke-width="8" />
  <!-- Rotor 1 -->
  <circle cx="60" cy="-60" r="15" fill="#444" />
  <!-- Props for Rotor 1 -->
  <path d="M60,-60 L80,-70 L75,-50 Z" fill="red" />
  <path d="M60,-60 L40,-70 L45,-50 Z" fill="red" />
  <path d="M60,-60 L60,-40 L60,-80 Z" fill="red" />
  
  <!-- Arm 2 (top left) -->
  <line x1="0" y1="0" x2="-60" y2="-60" stroke="#000" stroke-width="8" />
  <!-- Rotor 2 -->
  <circle cx="-60" cy="-60" r="15" fill="#444" />
  <!-- Props for Rotor 2 -->
  <path d="M-60,-60 L-80,-70 L-75,-50 Z" fill="red" />
  <path d="M-60,-60 L-40,-70 L-45,-50 Z" fill="red" />
  <path d="M-60,-60 L-60,-40 L-60,-80 Z" fill="red" />
  
  <!-- Arm 3 (bottom left) -->
  <line x1="0" y1="0" x2="-60" y2="60" stroke="#000" stroke-width="8" />
  <!-- Rotor 3 -->
  <circle cx="-60" cy="60" r="15" fill="#444" />
  <!-- Props for Rotor 3 -->
  <path d="M-60,60 L-80,70 L-75,50 Z" fill="red" />
  <path d="M-60,60 L-40,70 L-45,50 Z" fill="red" />
  <path d="M-60,60 L-60,40 L-60,80 Z" fill="red" />
  
  <!-- Arm 4 (bottom right) -->
  <line x1="0" y1="0" x2="60" y2="60" stroke="#000" stroke-width="8" />
  <!-- Rotor 4 -->
  <circle cx="60" cy="60" r="15" fill="#444" />
  <!-- Props for Rotor 4 -->
  <path d="M60,60 L80,70 L75,50 Z" fill="red" />
  <path d="M60,60 L40,70 L45,50 Z" fill="red" />
  <path d="M60,60 L60,40 L60,80 Z" fill="red" />
</svg> 